<?xml version="1.0" encoding="iso-8859-1"?>
<!-- Generator: Adobe Illustrator 19.0.0, SVG Export Plug-In . SVG Version: 6.00 Build 0)  -->
<svg version="1.1" id="Capa_1" xmlns="http://www.w3.org/2000/svg" xmlns:xlink="http://www.w3.org/1999/xlink" x="0px" y="0px"
	 viewBox="0 0 512 512" style="enable-background:new 0 0 512 512;" xml:space="preserve">
<circle style="fill:#FFDC00;" cx="256" cy="256" r="256"/>
<path style="fill:#FFC000;" d="M512,256c0-0.573-0.018-1.142-0.022-1.714l-63.947-63.947L250,88.048L82.031,216.754l99.773,99.772
	l-89.106,41.289l28.064,28.064l-12.378,9.38l114.63,114.63c10.8,1.39,21.809,2.11,32.987,2.11C397.385,512,512,397.385,512,256z"/>
<path style="fill:#005C83;" d="M404.198,273.214H107.802l32.408-67.247c8.611-17.868,26.694-29.227,46.529-29.227h146.337
	c21.756,0,41.179,13.633,48.575,34.093L404.198,273.214z"/>
<path style="fill:#00263F;" d="M381.651,210.833c-7.395-20.46-26.819-34.093-48.575-34.093h-77.124v96.474h148.246L381.651,210.833z
	"/>
<path style="fill:#B9EAFF;" d="M385.982,261.803H126.018l28.425-51.339c7.553-13.641,23.413-22.313,40.81-22.313h128.35
	c19.082,0,36.118,10.408,42.604,26.028L385.982,261.803z"/>
<path style="fill:#35CCFF;" d="M366.206,214.179c-6.486-15.62-23.522-26.028-42.604-26.028h-67.65v73.652h130.03L366.206,214.179z"
	/>
<polygon style="fill:#FF6838;" points="429.969,216.754 256,97.802 82.031,216.754 63.969,190.339 256,59.036 448.031,190.339 "/>
<polygon style="fill:#AE4E32;" points="256,97.802 429.969,216.754 448.031,190.339 256,59.036 "/>
<rect x="108.38" y="341.79" style="fill:#333333;" width="58.76" height="53.47"/>
<rect x="344.86" y="341.79" style="fill:#1A1A1A;" width="58.76" height="53.47"/>
<path style="fill:#0074A3;" d="M381,373.757H131c-29.823,0-54-24.177-54-54v-17.533c0-29.823,24.177-54,54-54h250
	c29.823,0,54,24.177,54,54v17.533C435,349.58,410.823,373.757,381,373.757z"/>
<path style="fill:#005C83;" d="M381,248.224H255.952v125.532H381c29.823,0,54-24.176,54-54v-17.532
	C435,272.4,410.823,248.224,381,248.224z"/>
<rect x="97.34" y="295.3" style="fill:#35CCFF;" width="67.42" height="26.734"/>
<rect x="179.29" y="295.3" style="fill:#005C83;" width="153.43" height="26.734"/>
<rect x="255.95" y="295.3" style="fill:#00263F;" width="76.76" height="26.733"/>
<rect x="347.24" y="295.3" style="fill:#00BAFF;" width="67.42" height="26.734"/>
<g>
</g>
<g>
</g>
<g>
</g>
<g>
</g>
<g>
</g>
<g>
</g>
<g>
</g>
<g>
</g>
<g>
</g>
<g>
</g>
<g>
</g>
<g>
</g>
<g>
</g>
<g>
</g>
<g>
</g>
</svg>
